# xmcd CD database file generated by OrangeCD 6.4
#
# Track frame offsets:
#	150
#	13573
#	26812
#	46256
#	63253
#	82533
#	98878
#	119925
#	123130
#	128442
#	130864
#	151353
#	160541
#	182764
#	201078
#	206969
#	208831
#	212688
#	242501
#	260950
#	266529
#	283968
#
# Disc length: 4083 seconds
#
# Revision: 0
# Processed by: cddbd v1.5.2PL0 Copyright (c) Steve Scherf et al.
# Submitted via: OrangeCD 6.4
#
DISCID=3f0ff116
DTITLE=Jimi Hendrix - The Late Studio Sessions 1969-1970
DYEAR=2010
DGENRE=Blues Rock
TTITLE0=Room Full Of Mirrors
TTITLE1=Izabella
TTITLE2=Ezy Rider
TTITLE3=Ezy Rider
TTITLE4=Earth Blues
TTITLE5=Message To Love
TTITLE6=Strato Strut
TTITLE7=Night Bird Flying
TTITLE8=Honey Bed (Take 1)
TTITLE9=Honey Bed (Take 2)
TTITLE10=Honey Bed (Take 3)
TTITLE11=Honey Bed (Take 4)
TTITLE12=Cherokee Mist/Astro Man
TTITLE13=Power Of Soul Session 1
TTITLE14=Power Of Soul Session 2
TTITLE15=Power Of Soul Session 3
TTITLE16=Power Of Soul Session 4
TTITLE17=Power Of Soul Session 5
TTITLE18=Send My Love To Linda
TTITLE19=Backwards Guitar Experiment
TTITLE20=Power Of Soul
TTITLE21=Villanova Junction
EXTD=
EXTT0=
EXTT1=
EXTT2=
EXTT3=
EXTT4=
EXTT5=
EXTT6=
EXTT7=
EXTT8=
EXTT9=
EXTT10=
EXTT11=
EXTT12=
EXTT13=
EXTT14=
EXTT15=
EXTT16=
EXTT17=
EXTT18=
EXTT19=
EXTT20=
EXTT21=
PLAYORDER=
